<mxfile host="app.diagrams.net" agent="Mozilla/5.0 (Macintosh; Intel Mac OS X 10_15_7) AppleWebKit/605.1.15 (KHTML, like Gecko) Version/18.4 Safari/605.1.15" version="26.2.13">
  <diagram name="Página-1" id="A5FbzLegYi2-s6k0OVku">
    <mxGraphModel dx="1010" dy="535" grid="0" gridSize="10" guides="1" tooltips="1" connect="1" arrows="1" fold="1" page="1" pageScale="1" pageWidth="1169" pageHeight="827" math="0" shadow="0">
      <root>
        <mxCell id="0" />
        <mxCell id="1" parent="0" />
        <mxCell id="35SfNl_9JhUK70KBar_d-23" style="edgeStyle=orthogonalEdgeStyle;rounded=0;sketch=1;hachureGap=4;jiggle=2;curveFitting=1;orthogonalLoop=1;jettySize=auto;html=1;entryX=0;entryY=0.5;entryDx=0;entryDy=0;strokeColor=#A8201A;fontFamily=Architects Daughter;fontSource=https%3A%2F%2Ffonts.googleapis.com%2Fcss%3Ffamily%3DArchitects%2BDaughter;fontColor=#143642;fillColor=#FAE5C7;" edge="1" parent="1" source="4GEQXV0VYOjfWgqpQ-_u-1" target="35SfNl_9JhUK70KBar_d-21">
          <mxGeometry relative="1" as="geometry" />
        </mxCell>
        <mxCell id="4GEQXV0VYOjfWgqpQ-_u-1" value="&lt;font face=&quot;Architects Daughter&quot;&gt;&lt;span style=&quot;text-wrap-mode: wrap;&quot;&gt;&lt;b&gt;Administrador&lt;/b&gt;&lt;/span&gt;&lt;/font&gt;" style="shape=umlActor;verticalLabelPosition=bottom;verticalAlign=top;html=1;outlineConnect=0;rounded=1;sketch=1;curveFitting=1;jiggle=2;labelBackgroundColor=none;fillColor=#FAE5C7;strokeColor=#0F8B8D;fontColor=#143642;" parent="1" vertex="1">
          <mxGeometry x="119" y="321" width="30" height="60" as="geometry" />
        </mxCell>
        <mxCell id="35SfNl_9JhUK70KBar_d-5" value="&lt;font face=&quot;Architects Daughter&quot;&gt;Módulo de Gestión de Equipos y Jugadores&lt;/font&gt;" style="swimlane;whiteSpace=wrap;html=1;rounded=1;sketch=1;curveFitting=1;jiggle=2;labelBackgroundColor=none;fillColor=#FAE5C7;strokeColor=#0F8B8D;fontColor=#143642;" vertex="1" parent="1">
          <mxGeometry x="225" y="240" width="497" height="346" as="geometry">
            <mxRectangle x="250" y="330" width="130" height="30" as="alternateBounds" />
          </mxGeometry>
        </mxCell>
        <mxCell id="35SfNl_9JhUK70KBar_d-12" value="&lt;b&gt;Validar datos&lt;/b&gt;" style="ellipse;whiteSpace=wrap;html=1;sketch=1;hachureGap=4;jiggle=2;curveFitting=1;strokeColor=#0F8B8D;fontFamily=Architects Daughter;fontSource=https%3A%2F%2Ffonts.googleapis.com%2Fcss%3Ffamily%3DArchitects%2BDaughter;fontColor=#143642;fillColor=#FAE5C7;" vertex="1" parent="35SfNl_9JhUK70KBar_d-5">
          <mxGeometry x="318.5" y="76" width="140" height="70" as="geometry" />
        </mxCell>
        <mxCell id="35SfNl_9JhUK70KBar_d-25" value="&lt;b&gt;&amp;lt;&amp;lt;extends&amp;gt;&amp;gt;&lt;/b&gt;" style="edgeStyle=orthogonalEdgeStyle;rounded=0;sketch=1;hachureGap=4;jiggle=2;curveFitting=1;orthogonalLoop=1;jettySize=auto;html=1;entryX=0.5;entryY=1;entryDx=0;entryDy=0;strokeColor=#A8201A;fontFamily=Architects Daughter;fontSource=https%3A%2F%2Ffonts.googleapis.com%2Fcss%3Ffamily%3DArchitects%2BDaughter;fontColor=#143642;fillColor=#FAE5C7;dashed=1;" edge="1" parent="35SfNl_9JhUK70KBar_d-5" source="35SfNl_9JhUK70KBar_d-20" target="35SfNl_9JhUK70KBar_d-21">
          <mxGeometry relative="1" as="geometry" />
        </mxCell>
        <mxCell id="35SfNl_9JhUK70KBar_d-20" value="&lt;b&gt;Consultar lista de equipos y jugadores&lt;/b&gt;" style="ellipse;whiteSpace=wrap;html=1;sketch=1;hachureGap=4;jiggle=2;curveFitting=1;strokeColor=#0F8B8D;fontFamily=Architects Daughter;fontSource=https%3A%2F%2Ffonts.googleapis.com%2Fcss%3Ffamily%3DArchitects%2BDaughter;fontColor=#143642;fillColor=#FAE5C7;" vertex="1" parent="35SfNl_9JhUK70KBar_d-5">
          <mxGeometry x="56" y="251" width="140" height="70" as="geometry" />
        </mxCell>
        <mxCell id="35SfNl_9JhUK70KBar_d-24" value="&lt;b&gt;&amp;lt;&amp;lt;include&amp;gt;&amp;gt;&lt;/b&gt;" style="edgeStyle=orthogonalEdgeStyle;rounded=0;sketch=1;hachureGap=4;jiggle=2;curveFitting=1;orthogonalLoop=1;jettySize=auto;html=1;exitX=1;exitY=0.5;exitDx=0;exitDy=0;entryX=0;entryY=0.5;entryDx=0;entryDy=0;strokeColor=#A8201A;fontFamily=Architects Daughter;fontSource=https%3A%2F%2Ffonts.googleapis.com%2Fcss%3Ffamily%3DArchitects%2BDaughter;fontColor=#143642;fillColor=#FAE5C7;dashed=1;" edge="1" parent="35SfNl_9JhUK70KBar_d-5" source="35SfNl_9JhUK70KBar_d-21" target="35SfNl_9JhUK70KBar_d-12">
          <mxGeometry relative="1" as="geometry" />
        </mxCell>
        <mxCell id="35SfNl_9JhUK70KBar_d-21" value="&lt;b&gt;Añadir jugador a un equipo&lt;/b&gt;" style="ellipse;whiteSpace=wrap;html=1;sketch=1;hachureGap=4;jiggle=2;curveFitting=1;strokeColor=#0F8B8D;fontFamily=Architects Daughter;fontSource=https%3A%2F%2Ffonts.googleapis.com%2Fcss%3Ffamily%3DArchitects%2BDaughter;fontColor=#143642;fillColor=#FAE5C7;" vertex="1" parent="35SfNl_9JhUK70KBar_d-5">
          <mxGeometry x="56" y="76" width="140" height="70" as="geometry" />
        </mxCell>
        <mxCell id="35SfNl_9JhUK70KBar_d-11" value="&lt;h1 style=&quot;margin-top: 0px;&quot;&gt;&lt;br&gt;&lt;/h1&gt;&lt;p&gt;“Validar datos” se modela como un caso de uso &amp;lt;&amp;lt;include&amp;gt;&amp;gt;, ya que representa un paso común y complejo, reutilizado en el flujo “Registrar equipo”.&lt;br&gt;&lt;/p&gt;&lt;p&gt;&lt;br&gt;&lt;/p&gt;&lt;p&gt;&lt;br&gt;&lt;/p&gt;&lt;p&gt;&lt;br&gt;&lt;/p&gt;&lt;p&gt;&lt;br&gt;&lt;/p&gt;&lt;p&gt;“Consultar lista de equipos y jugadores” se modela como una extensión opcional de “Añadir jugador a un equipo”, ya que puede ofrecerse tras el registro, pero no forma parte del flujo principal.&lt;/p&gt;" style="text;html=1;whiteSpace=wrap;overflow=hidden;rounded=0;fontFamily=Architects Daughter;fontSource=https%3A%2F%2Ffonts.googleapis.com%2Fcss%3Ffamily%3DArchitects%2BDaughter;fontColor=#548C82;fontStyle=1;fontSize=13;" vertex="1" parent="1">
          <mxGeometry x="734" y="249" width="317" height="341" as="geometry" />
        </mxCell>
      </root>
    </mxGraphModel>
  </diagram>
</mxfile>
